<svg width="78" height="77" viewBox="0 0 78 77" fill="none" xmlns="http://www.w3.org/2000/svg">
<path fill-rule="evenodd" clip-rule="evenodd" d="M38.9937 0C17.8578 0 0.704102 17.1537 0.704102 38.2896C0.704102 59.4254 17.8578 76.5792 38.9937 76.5792C60.1295 76.5792 77.2833 59.4254 77.2833 38.2896C77.2833 17.1537 60.1295 0 38.9937 0ZM38.9937 68.9212C22.108 68.9212 8.36202 55.1753 8.36202 38.2896C8.36202 21.4039 22.108 7.65792 38.9937 7.65792C55.8794 7.65792 69.6253 21.4039 69.6253 38.2896C69.6253 55.1753 55.8794 68.9212 38.9937 68.9212ZM31.2209 28.6023C31.2209 31.3975 33.4034 33.2736 40.1807 34.9967C46.9196 36.758 54.1563 39.668 54.1946 48.0917C54.1563 54.2563 49.5616 57.5875 43.7416 58.6979V65.0923H34.7818V58.583C29.0384 57.3961 24.2139 53.7203 23.831 47.211H30.4168C30.7614 50.7337 33.1737 53.4905 39.3 53.4905C45.8475 53.4905 47.3408 50.1976 47.3408 48.1683C47.3408 45.4114 45.8475 42.7695 38.381 41.0081C30.0722 39.0171 24.3671 35.571 24.3671 28.7172C24.3671 22.9355 29.0001 19.1831 34.7818 17.9578V11.4869H43.7033V18.0344C49.9062 19.566 53.046 24.2756 53.2374 29.4064H46.6899C46.5367 25.654 44.5457 23.1269 39.2617 23.1269C34.2458 23.1269 31.2209 25.386 31.2209 28.6023Z" fill="#595959"/>
</svg>
